<?xml version="1.0" standalone="no"?>
<!DOCTYPE svg PUBLIC "-//W3C//DTD SVG 20010904//EN"
 "http://www.w3.org/TR/2001/REC-SVG-20010904/DTD/svg10.dtd">
<svg version="1.0" xmlns="http://www.w3.org/2000/svg"
 width="500.000000pt" height="500.000000pt" viewBox="0 0 500.000000 500.000000"
 preserveAspectRatio="xMidYMid meet">
<metadata>
Created by potrace 1.16, written by Peter Selinger 2001-2019
</metadata>
<g transform="translate(0.000000,500.000000) scale(0.100000,-0.100000)"
fill="#000000" stroke="none">
<path d="M3993 4848 c-12 -6 -25 -18 -30 -27 -4 -9 -10 -353 -13 -766 l-5
-750 -25 -49 c-29 -57 -66 -91 -138 -124 -136 -62 -314 26 -351 174 -6 24 -11
126 -11 227 0 209 -8 265 -50 355 -36 77 -133 178 -208 216 -235 119 -514 37
-641 -189 -60 -106 -61 -116 -61 -749 l0 -576 85 0 84 0 3 583 3 582 24 52
c46 104 169 183 281 183 105 0 222 -71 268 -163 33 -66 42 -139 42 -342 0
-125 4 -194 14 -226 72 -235 317 -371 544 -301 123 39 236 143 285 262 l22 55
0 771 0 772 -25 21 c-27 22 -63 26 -97 9z"/>
<path d="M3681 2213 c-101 -36 -168 -143 -164 -258 9 -209 269 -318 424 -178
63 57 84 105 84 193 0 83 -15 121 -69 178 -67 72 -183 99 -275 65z"/>
<path d="M1050 1795 l0 -175 -175 0 -175 0 2 -262 3 -263 172 -3 173 -2 2
-173 3 -172 260 0 260 0 3 172 2 173 173 2 172 3 3 263 2 262 -175 0 -175 0 0
175 0 175 -265 0 -265 0 0 -175z"/>
<path d="M4345 1614 c-92 -23 -164 -77 -196 -149 -27 -59 -25 -157 5 -220 92
-199 386 -190 474 14 37 86 10 211 -59 280 -55 55 -161 91 -224 75z"/>
</g>
</svg>
